<svg viewBox="0 0 318 767" fill="none" xmlns="http://www.w3.org/2000/svg">
<path d="M108.558 213.65C84.5583 206.05 77.5583 175.483 77.0583 161.15C68.5583 161.15 51.0583 155.15 51.0583 138.65C51.0583 125.45 63.725 117.816 70.0583 115.65C63.0584 57.1496 77.0583 -1.35039 171.058 2.14961C246.258 4.94961 252.392 79.6496 246.058 116.65C251.558 115.483 263.158 118.25 265.558 138.65C267.958 159.05 248.558 162.15 238.558 161.15C240.958 198.75 219.558 211.816 208.558 213.65L213.058 220.15L215.558 222.15C248.558 236.65 280.558 271.65 298.058 295.65C315.558 319.65 313.558 403.65 315.558 458.65C317.158 502.65 289.892 516.65 276.058 518.15L251.558 733.65L284.058 753.65L246.058 764.65C227.392 760.983 188.558 752.85 182.558 749.65C176.558 746.45 177.725 741.983 179.058 740.15L182.558 727.65L157.058 560.65L134.058 733.65C137.258 743.65 132.725 751.15 130.058 753.65L67.0583 764.65L36.0583 753.65L67.0583 733.65L36.0583 518.15C5.05834 500.65 0.05834 483.15 2.55834 450.15C5.05834 417.15 2.05834 346.15 18.0583 299.65C34.0583 253.15 73.5583 236.65 92.0583 227.65C106.858 220.45 109.225 215.316 108.558 213.65Z" stroke="#FF08D7" stroke-width="4"/>
<path d="M52.5583 288.15C44.8916 299.15 31.8583 329.25 41.0583 361.65C31.725 383.983 17.6583 435.15 36.0583 461.15C42.225 470.816 53.5583 491.15 49.5583 495.15C44.5583 500.15 33.5584 496.65 28.5584 476.65C29.0584 483.316 35.6583 500.55 58.0583 516.15C80.4583 531.75 52.725 523.65 36.0583 517.65" stroke="#FF08D7" stroke-width="4"/>
<path d="M261.958 286.15C269.625 297.15 282.658 327.25 273.458 359.65C282.792 381.983 296.858 433.15 278.458 459.15C272.292 468.816 260.958 489.15 264.958 493.15C269.958 498.15 280.958 494.65 285.958 474.65C285.458 481.316 278.858 498.55 256.458 514.15C234.058 529.75 261.792 521.65 278.458 515.65" stroke="#FF08D7" stroke-width="4"/>
</svg>
